# xmcd
# 
# Track frame offsets:
#     150
#     21413
#     46173
#     68583
#     80548
#     101360
#     131430
# 
# Disc length: 2080
# 
# Revision: 0
# Processed by: cddbd v1.5.2PL0 Copyright (c) Steve Scherf et al.
# Submitted via: BonkEnc v1.0.6
# 
DISCID=4f081e07
DTITLE=甲斐名都 - 夕暮れワルツ
DYEAR=2005
DGENRE=Ｊ‐ＰＯＰ
TTITLE0=向日葵の恋
TTITLE1=回転木馬
TTITLE2=僕から君に
TTITLE3=early summer love song
TTITLE4=幸せの陽
TTITLE5=フトウメイナセカイ
TTITLE6=夕暮れワルツ
EXTD=
EXTT0=
EXTT1=
EXTT2=
EXTT3=
EXTT4=
EXTT5=
EXTT6=
PLAYORDER=
